# xmcd
#
# Track frame offsets:
#	150
#	20358
#	37602
#	52003
#	67335
#	80434
#	97418
#	112425
#	124308
#	142324
#	157903
#	174810
#	191915
#
# Disc length: 2701 seconds
#
# Revision: 1
# Processed by: cddbd v1.5.2PL0 Copyright (c) Steve Scherf et al.
# Submitted via: EasyCDDAExtractor 12.0.1.1
#
DISCID=c10a8b0d
DTITLE=Highway 40 - We're From The Country
DYEAR=2005
DGENRE=Country
TTITLE0=I'm From The Country
TTITLE1=I Don't Feel That Way Anymore
TTITLE2=Good Year For The Roses
TTITLE3=I Fell In Love
TTITLE4=Love Bug
TTITLE5=Blue Bayou
TTITLE6=We All Get Lucky Sometimes
TTITLE7=Wait A Minute
TTITLE8=The Singer, The Sailor And Blue Collar Paul
TTITLE9=Walk Right Back
TTITLE10=Pardon Me
TTITLE11=You're Easy On The Eyes
TTITLE12=O'l Lonesome
EXTD=
EXTT0=
EXTT1=
EXTT2=
EXTT3=
EXTT4=
EXTT5=
EXTT6=
EXTT7=
EXTT8=
EXTT9=
EXTT10=
EXTT11=
EXTT12=
PLAYORDER=
